<svg width="20" height="20" viewBox="0 0 20 20" fill="none" xmlns="http://www.w3.org/2000/svg">
<path d="M7.91669 18.3334H12.0834M8.33335 8.33342H11.6667M10 8.33342L10 13.3334M12.5 12.7721C14.4708 11.8358 15.8334 9.82708 15.8334 7.50008C15.8334 4.27842 13.2217 1.66675 10 1.66675C6.77836 1.66675 4.16669 4.27842 4.16669 7.50008C4.16669 9.82708 5.52923 11.8358 7.50002 12.7721V13.3334C7.50002 14.11 7.50002 14.4983 7.62689 14.8046C7.79604 15.2129 8.1205 15.5374 8.52888 15.7065C8.83517 15.8334 9.22345 15.8334 10 15.8334C10.7766 15.8334 11.1649 15.8334 11.4712 15.7065C11.8795 15.5374 12.204 15.2129 12.3732 14.8046C12.5 14.4983 12.5 14.11 12.5 13.3334V12.7721Z" stroke="#666666" stroke-width="1.5" stroke-linecap="round" stroke-linejoin="round"/>
</svg>
