<svg width="20" height="20" viewBox="0 0 20 20" fill="none" xmlns="http://www.w3.org/2000/svg">
<path d="M10 12.5L7.50001 10M10 12.5C11.164 12.0573 12.2807 11.499 13.3333 10.8334M10 12.5V16.6667C10 16.6667 12.525 16.2084 13.3333 15C14.2333 13.65 13.3333 10.8334 13.3333 10.8334M7.50001 10C7.94346 8.84957 8.50185 7.74676 9.16668 6.70838C10.1377 5.15587 11.4897 3.87758 13.0942 2.99512C14.6987 2.11266 16.5022 1.65535 18.3333 1.66671C18.3333 3.93338 17.6833 7.91671 13.3333 10.8334M7.50001 10H3.33334C3.33334 10 3.79168 7.47504 5.00001 6.66671C6.35001 5.76671 9.16668 6.66671 9.16668 6.66671M3.75001 13.75C2.50001 14.8 2.08334 17.9167 2.08334 17.9167C2.08334 17.9167 5.20001 17.5 6.25001 16.25C6.84168 15.55 6.83334 14.475 6.17501 13.825C5.8511 13.5159 5.42442 13.3372 4.97687 13.3234C4.52931 13.3096 4.09241 13.4615 3.75001 13.75Z" stroke="#666666" stroke-width="1.5" stroke-linecap="round" stroke-linejoin="round"/>
</svg>
