<svg width="20" height="20" viewBox="0 0 20 20" fill="none" xmlns="http://www.w3.org/2000/svg">
<g clip-path="url(#clip0_3772_115783)">
<path d="M11.1397 7.46777L18.0501 13.9782C18.2315 14.1601 18.3333 14.4065 18.3333 14.6633C18.3333 14.9202 18.2315 15.1665 18.0501 15.3484L17.3613 16.0372C17.1794 16.2186 16.933 16.3205 16.6762 16.3205C16.4193 16.3205 16.1729 16.2186 15.991 16.0372L9.48062 9.12686" stroke="#666666" stroke-width="1.5" stroke-linecap="round" stroke-linejoin="round"/>
<path d="M3.96269 7.43827C6.26899 6.15757 8.17029 4.25626 9.451 1.94996C9.63288 1.7686 9.87925 1.66675 10.1361 1.66675C10.393 1.66675 10.6393 1.7686 10.8212 1.94996L13.4209 4.54969C13.6028 4.73283 13.7048 4.98043 13.7048 5.2385C13.7048 5.49658 13.6028 5.74418 13.4209 5.92732C11.0911 7.17322 9.18168 9.0801 7.93264 11.4082C7.75076 11.5896 7.50438 11.6914 7.24753 11.6914C6.99067 11.6914 6.7443 11.5896 6.56241 11.4082L3.96269 8.8085C3.78132 8.62662 3.67947 8.38024 3.67947 8.12338C3.67947 7.86653 3.78132 7.62015 3.96269 7.43827Z" stroke="#666666" stroke-width="1.5" stroke-linecap="round" stroke-linejoin="round"/>
<path d="M10.5546 16.4818C10.5546 16.1872 10.4376 15.9046 10.2292 15.6963C10.0208 15.4879 9.73826 15.3708 9.44361 15.3708H3.88864C3.59399 15.3708 3.3114 15.4879 3.10305 15.6963C2.8947 15.9046 2.77765 16.1872 2.77765 16.4818V18.3335H10.5546V16.4818Z" stroke="#666666" stroke-width="1.5" stroke-linecap="round" stroke-linejoin="round"/>
<path d="M1.66666 18.3335H11.6656" stroke="#666666" stroke-width="1.5" stroke-linecap="round" stroke-linejoin="round"/>
</g>
<defs>
<clipPath id="clip0_3772_115783">
<rect width="20" height="20" fill="white"/>
</clipPath>
</defs>
</svg>
