<svg width="20" height="20" viewBox="0 0 20 20" fill="none" xmlns="http://www.w3.org/2000/svg">
<g clip-path="url(#clip0_3772_115864)">
<path d="M11.2746 6.95996C10.7976 7.30004 10.2138 7.50008 9.58335 7.50008C7.97252 7.50008 6.66669 6.19425 6.66669 4.58341C6.66669 2.97258 7.97252 1.66675 9.58335 1.66675C10.6275 1.66675 11.5435 2.21543 12.0588 3.0402M5.00002 16.7394H7.17526C7.45888 16.7394 7.74076 16.7731 8.0157 16.8406L10.3141 17.3991C10.8128 17.5206 11.3323 17.5325 11.8362 17.4346L14.3775 16.9402C15.0488 16.8094 15.6663 16.488 16.1503 16.0172L17.9483 14.2682C18.4617 13.7695 18.4617 12.9604 17.9483 12.461C17.486 12.0113 16.754 11.9607 16.231 12.342L14.1355 13.8708C13.8354 14.0902 13.4703 14.2083 13.0947 14.2083H11.0713L12.3592 14.2082C13.0852 14.2082 13.6732 13.6362 13.6732 12.93V12.6744C13.6732 12.088 13.263 11.5767 12.6784 11.435L10.6905 10.9515C10.367 10.8731 10.0357 10.8334 9.70264 10.8334C8.89863 10.8334 7.44327 11.4991 7.44327 11.4991L5.00002 12.5208M16.6667 5.41675C16.6667 7.02758 15.3609 8.33342 13.75 8.33342C12.1392 8.33342 10.8334 7.02758 10.8334 5.41675C10.8334 3.80592 12.1392 2.50008 13.75 2.50008C15.3609 2.50008 16.6667 3.80592 16.6667 5.41675ZM1.66669 12.1667L1.66669 17.0001C1.66669 17.4668 1.66669 17.7001 1.75751 17.8784C1.83741 18.0352 1.96489 18.1627 2.12169 18.2426C2.29995 18.3334 2.53331 18.3334 3.00002 18.3334H3.66669C4.1334 18.3334 4.36675 18.3334 4.54501 18.2426C4.70181 18.1627 4.8293 18.0352 4.90919 17.8784C5.00002 17.7001 5.00002 17.4668 5.00002 17.0001V12.1667C5.00002 11.7 5.00002 11.4667 4.90919 11.2884C4.8293 11.1316 4.70181 11.0041 4.54501 10.9242C4.36675 10.8334 4.1334 10.8334 3.66669 10.8334L3.00002 10.8334C2.53331 10.8334 2.29995 10.8334 2.1217 10.9242C1.96489 11.0041 1.83741 11.1316 1.75751 11.2884C1.66669 11.4667 1.66669 11.7 1.66669 12.1667Z" stroke="#666666" stroke-width="1.5" stroke-linecap="round" stroke-linejoin="round"/>
</g>
<defs>
<clipPath id="clip0_3772_115864">
<rect width="20" height="20" fill="white"/>
</clipPath>
</defs>
</svg>
