<svg width="16" height="16" viewBox="0 0 16 16" fill="none" xmlns="http://www.w3.org/2000/svg">
<path d="M1.42365 5.45429C1.2237 5.31147 1.12372 5.24005 1.03656 5.23078C0.906204 5.21692 0.775564 5.28415 0.711082 5.39828C0.667963 5.47459 0.667965 5.5961 0.667969 5.83912V10.1609C0.667961 10.6975 0.667954 11.1404 0.697432 11.5012C0.728049 11.8759 0.793758 12.2204 0.958619 12.544C1.21428 13.0457 1.62223 13.4537 2.124 13.7094C2.44755 13.8742 2.79202 13.9399 3.16675 13.9705C3.52755 14 3.97045 14 4.50709 14H11.4955C12.0322 14 12.4751 14 12.8359 13.9705C13.2106 13.9399 13.5551 13.8742 13.8786 13.7094C14.3804 13.4537 14.7883 13.0457 15.044 12.544C15.2088 12.2204 15.2746 11.8759 15.3052 11.5012C15.3347 11.1404 15.3346 10.6975 15.3346 10.1609V5.83912C15.3346 5.72001 15.3346 5.66045 15.3237 5.61886C15.2744 5.43084 15.07 5.32374 14.8873 5.39021C14.8469 5.40491 14.7973 5.43924 14.6982 5.50789L9.53674 9.08129C9.17078 9.33544 8.84946 9.55859 8.48443 9.64707C8.16515 9.72446 7.83172 9.72201 7.51361 9.63993C7.14992 9.54609 6.83192 9.31824 6.46973 9.05874L1.42365 5.45429Z" fill="#666666"/>
<path d="M14.7565 3.84581C14.8796 3.76061 14.9411 3.71801 14.9789 3.64949C15.0083 3.59629 15.025 3.51203 15.0183 3.45163C15.0097 3.37386 14.9766 3.32251 14.9105 3.21982C14.6573 2.82643 14.2928 2.5017 13.8786 2.29065C13.5551 2.12579 13.2106 2.06008 12.8359 2.02946C12.4751 1.99999 12.0322 1.99999 11.4955 2H4.5071C3.97046 1.99999 3.52755 1.99999 3.16675 2.02946C2.79202 2.06008 2.44755 2.12579 2.124 2.29065C1.75131 2.48054 1.42917 2.75507 1.18421 3.0889C1.10715 3.19393 1.06861 3.24644 1.05592 3.32614C1.04599 3.38846 1.05985 3.47505 1.08874 3.53116C1.12569 3.60291 1.18976 3.64868 1.31792 3.74022L7.16799 7.91884C7.6528 8.26514 7.75568 8.32539 7.84673 8.34888C7.95276 8.37624 8.06391 8.37706 8.17033 8.35126C8.26171 8.32911 8.36547 8.27038 8.85532 7.93125L14.7565 3.84581Z" fill="#666666"/>
</svg>
