<svg width="20" height="20" viewBox="0 0 20 20" fill="none" xmlns="http://www.w3.org/2000/svg">
<path d="M11.6666 9.16675H6.66665M8.33331 12.5001H6.66665M13.3333 5.83341H6.66665M16.6666 5.66675V14.3334C16.6666 15.7335 16.6666 16.4336 16.3942 16.9684C16.1545 17.4388 15.772 17.8212 15.3016 18.0609C14.7668 18.3334 14.0668 18.3334 12.6666 18.3334H7.33331C5.93318 18.3334 5.23312 18.3334 4.69834 18.0609C4.22793 17.8212 3.84548 17.4388 3.6058 16.9684C3.33331 16.4336 3.33331 15.7335 3.33331 14.3334V5.66675C3.33331 4.26662 3.33331 3.56655 3.6058 3.03177C3.84548 2.56137 4.22793 2.17892 4.69834 1.93923C5.23312 1.66675 5.93318 1.66675 7.33331 1.66675H12.6666C14.0668 1.66675 14.7668 1.66675 15.3016 1.93923C15.772 2.17892 16.1545 2.56137 16.3942 3.03177C16.6666 3.56655 16.6666 4.26662 16.6666 5.66675Z" stroke="#666666" stroke-width="1.5" stroke-linecap="round" stroke-linejoin="round"/>
</svg>
