<svg width="166" height="55" viewBox="0 0 166 55" fill="none" xmlns="http://www.w3.org/2000/svg">
<path d="M152.781 0.000178749H13.2267C12.718 0.000178749 12.2154 0.00017875 11.708 0.00292874C11.2833 0.00567873 10.862 0.0136675 10.4333 0.0203912C9.50176 0.0312561 8.57245 0.112483 7.65341 0.263367C6.73566 0.417535 5.84666 0.708186 5.01648 1.12549C4.18731 1.54632 3.42968 2.09315 2.77106 2.74614C2.10899 3.39729 1.5571 4.14994 1.13662 4.97513C0.714972 5.79869 0.422602 6.6812 0.269606 7.59219C0.115154 8.50203 0.0320425 9.42236 0.0210163 10.3449C0.00814296 10.7665 0.00678349 11.1895 0 11.6111V43.3931C0.00678349 43.82 0.00814296 44.2336 0.0210163 44.6607C0.0320458 45.5832 0.115158 46.5035 0.269606 47.4133C0.42218 48.3248 0.714567 49.2079 1.13662 50.0317C1.55691 50.8543 2.10888 51.6039 2.77106 52.2514C3.42718 52.9073 4.18531 53.4545 5.01648 53.8721C5.84666 54.2905 6.73556 54.5829 7.65341 54.7394C8.57261 54.8891 9.50182 54.9704 10.4333 54.9825C10.862 54.9919 11.2833 54.9973 11.708 54.9973C12.2154 55 12.718 55 13.2267 55H152.781C153.279 55 153.786 55 154.285 54.9973C154.707 54.9973 155.141 54.9919 155.563 54.9825C156.493 54.971 157.421 54.8898 158.338 54.7394C159.259 54.5818 160.151 54.2895 160.985 53.8721C161.815 53.4542 162.573 52.9071 163.228 52.2514C163.889 51.6013 164.442 50.8523 164.867 50.0317C165.286 49.2073 165.576 48.3243 165.726 47.4133C165.881 46.5034 165.967 45.5833 165.984 44.6607C165.989 44.2336 165.989 43.82 165.989 43.3931C166 42.8936 166 42.3968 166 41.8891V13.1123C166 12.6088 166 12.1093 165.989 11.6111C165.989 11.1895 165.989 10.7665 165.984 10.3449C165.967 9.42223 165.881 8.5021 165.726 7.59213C165.576 6.68167 165.286 5.79923 164.867 4.97508C164.011 3.32106 162.653 1.97471 160.985 1.12537C160.151 0.709082 159.259 0.418508 158.338 0.263243C157.421 0.111695 156.493 0.0304393 155.563 0.0201987C155.141 0.0134887 154.707 0.00543123 154.285 0.00274999C153.786 0 153.279 0 152.781 0V0.000178749Z" fill="black"/>
<path d="M11.7147 53.7967C11.292 53.7967 10.8796 53.7913 10.4602 53.782C9.59155 53.7708 8.72488 53.6958 7.86734 53.5577C7.06774 53.4212 6.29314 53.1673 5.56909 52.8044C4.85168 52.4444 4.19734 51.9725 3.63115 51.4066C3.05675 50.8473 2.57855 50.1987 2.21548 49.4864C1.8484 48.7694 1.59437 48.001 1.46222 47.2077C1.31951 46.3554 1.24229 45.4935 1.23125 44.6296C1.22245 44.3396 1.21094 43.3741 1.21094 43.3741V11.6109C1.21094 11.6109 1.2232 10.6602 1.23132 10.3809C1.24189 9.51839 1.31866 8.65787 1.46094 7.80686C1.59334 7.01145 1.84757 6.24076 2.21484 5.52148C2.57658 4.80966 3.05213 4.16055 3.62306 3.5993C4.19335 3.03272 4.84978 2.55833 5.56841 2.19341C6.29079 1.83163 7.06393 1.57951 7.86192 1.4455C8.72227 1.30602 9.59195 1.23062 10.4637 1.21991L11.7154 1.20312H154.278L155.544 1.22059C156.408 1.23076 157.27 1.30549 158.122 1.44415C158.928 1.57984 159.71 1.83372 160.44 2.19744C161.88 2.93285 163.051 4.09634 163.79 5.52483C164.152 6.23915 164.402 7.00355 164.533 7.79209C164.677 8.65009 164.757 9.51736 164.774 10.387C164.778 10.7764 164.778 11.1947 164.778 11.6109C164.789 12.1266 164.789 12.6173 164.789 13.1121V41.889C164.789 42.3885 164.789 42.8759 164.778 43.3674C164.778 43.8145 164.778 44.2241 164.772 44.6457C164.756 45.4998 164.677 46.3516 164.535 47.1943C164.406 47.9932 164.153 48.7677 163.786 49.4905C163.421 50.1951 162.945 50.8381 162.377 51.3958C161.811 51.9648 161.155 52.4395 160.436 52.8018C159.708 53.1675 158.928 53.4224 158.122 53.5577C157.265 53.6966 156.398 53.7715 155.529 53.782C155.123 53.7913 154.698 53.7967 154.284 53.7967L152.781 53.7995L11.7147 53.7967Z" fill="white"/>
<path d="M34.678 27.3445C34.6936 26.1511 35.0134 24.9809 35.6078 23.9429C36.2021 22.9049 37.0517 22.0328 38.0775 21.4077C37.4259 20.4852 36.5662 19.726 35.5667 19.1905C34.5673 18.6549 33.4556 18.3577 32.32 18.3225C29.8976 18.0705 27.5492 19.7593 26.3148 19.7593C25.0565 19.7593 23.1559 18.3475 21.1093 18.3893C19.7855 18.4317 18.4953 18.8132 17.3646 19.4968C16.2338 20.1803 15.3009 21.1426 14.6568 22.2897C11.867 27.0775 13.948 34.1138 16.6205 37.9839C17.9576 39.879 19.5202 41.9958 21.565 41.9207C23.5659 41.8385 24.3132 40.6561 26.7285 40.6561C29.1214 40.6561 29.8225 41.9207 31.9088 41.873C34.0559 41.8385 35.4086 39.9695 36.6988 38.0565C37.6595 36.7062 38.3988 35.2139 38.8892 33.6347C37.6418 33.1118 36.5773 32.2364 35.8285 31.1179C35.0796 29.9993 34.6795 28.687 34.678 27.3445Z" fill="black"/>
<path d="M30.738 15.7801C31.9087 14.3872 32.4855 12.5967 32.3458 10.7891C30.5573 10.9753 28.9052 11.8225 27.7187 13.1621C27.1386 13.8165 26.6943 14.5778 26.4112 15.4025C26.1281 16.2272 26.0117 17.0991 26.0688 17.9684C26.9634 17.9775 27.8484 17.7853 28.6572 17.4063C29.466 17.0272 30.1775 16.4712 30.738 15.7801Z" fill="black"/>
<path d="M58.6841 37.3268H52.1178L50.541 41.9419H47.7598L53.9792 24.8672H56.8688L63.0882 41.9419H60.2596L58.6841 37.3268ZM52.7979 35.1971H58.0027L55.4369 27.7072H55.3651L52.7979 35.1971Z" fill="black"/>
<path d="M76.5201 35.717C76.5201 39.5855 74.4312 42.071 71.2788 42.071C70.4802 42.1124 69.686 41.9301 68.9872 41.5449C68.2883 41.1597 67.713 40.5872 67.3271 39.893H67.2675V46.059H64.6895V29.4919H67.1848V31.5625H67.2322C67.6358 30.8716 68.2209 30.3021 68.9251 29.9145C69.6293 29.527 70.4263 29.3359 71.2313 29.3617C74.419 29.3617 76.5201 31.8592 76.5201 35.717ZM73.8703 35.717C73.8703 33.1966 72.5562 31.5396 70.5513 31.5396C68.5816 31.5396 67.2566 33.2315 67.2566 35.717C67.2566 38.2253 68.5816 39.9051 70.5513 39.9051C72.5563 39.9051 73.8703 38.2602 73.8703 35.717H73.8703Z" fill="black"/>
<path d="M90.345 35.717C90.345 39.5855 88.2554 42.071 85.103 42.071C84.3044 42.1124 83.5103 41.9301 82.8114 41.5449C82.1125 41.1597 81.5372 40.5872 81.1513 39.893H81.0917V46.059H78.5137V29.4919H81.009V31.5625H81.0565C81.4601 30.8716 82.0451 30.3021 82.7493 29.9145C83.4535 29.527 84.2505 29.3359 85.0555 29.3617C88.2432 29.3617 90.345 31.8592 90.345 35.717ZM87.6945 35.717C87.6945 33.1966 86.3805 31.5396 84.3755 31.5396C82.4058 31.5396 81.0809 33.2315 81.0809 35.717C81.0809 38.2253 82.4058 39.9051 84.3755 39.9051C86.3805 39.9051 87.6945 38.2602 87.6945 35.717Z" fill="black"/>
<path d="M99.4789 37.1801C99.6699 38.8733 101.329 39.9851 103.597 39.9851C105.77 39.9851 107.333 38.8733 107.333 37.3465C107.333 36.0212 106.391 35.2277 104.158 34.6838L101.925 34.1507C98.7622 33.3934 97.2937 31.9271 97.2937 29.5477C97.2937 26.6017 99.8839 24.5781 103.561 24.5781C107.202 24.5781 109.697 26.6017 109.781 29.5477H107.179C107.023 27.8437 105.602 26.8152 103.525 26.8152C101.449 26.8152 100.028 27.8558 100.028 29.3705C100.028 30.5776 100.935 31.288 103.156 31.8317L105.053 32.2936C108.588 33.1221 110.055 34.5294 110.055 37.0269C110.055 40.2213 107.489 42.2221 103.406 42.2221C99.5858 42.2221 97.0065 40.2683 96.8398 37.18L99.4789 37.1801Z" fill="black"/>
<path d="M115.621 26.5469V29.4929H118.01V31.5165H115.621V38.3794C115.621 39.4455 116.1 39.9423 117.15 39.9423C117.433 39.9374 117.716 39.9177 117.998 39.8832V41.8947C117.526 41.9821 117.046 42.0217 116.566 42.0129C114.023 42.0129 113.031 41.0662 113.031 38.6519V31.5165H111.205V29.4929H113.031V26.5469H115.621Z" fill="black"/>
<path d="M119.391 35.7141C119.391 31.7972 121.718 29.3359 125.347 29.3359C128.989 29.3359 131.305 31.7972 131.305 35.7141C131.305 39.6417 129.001 42.0922 125.347 42.0922C121.695 42.0922 119.391 39.6417 119.391 35.7141ZM128.678 35.7141C128.678 33.0272 127.436 31.4414 125.347 31.4414C123.258 31.4414 122.016 33.0393 122.016 35.7141C122.016 38.4117 123.258 39.9854 125.347 39.9854C127.436 39.9854 128.678 38.4117 128.678 35.7141H128.678Z" fill="black"/>
<path d="M133.432 29.4918H135.89V31.6107H135.95C136.116 30.9489 136.508 30.3641 137.058 29.9545C137.608 29.5449 138.284 29.3355 138.971 29.3615C139.268 29.3605 139.564 29.3925 139.854 29.4569V31.847C139.479 31.7334 139.088 31.6813 138.696 31.6926C138.322 31.6775 137.948 31.743 137.602 31.8845C137.255 32.0259 136.943 32.2401 136.688 32.5122C136.433 32.7843 136.24 33.1079 136.123 33.4608C136.006 33.8137 135.967 34.1876 136.01 34.5567V41.9406H133.432L133.432 29.4918Z" fill="black"/>
<path d="M151.74 38.2815C151.393 40.5413 149.172 42.0922 146.332 42.0922C142.678 42.0922 140.41 39.6659 140.41 35.7732C140.41 31.8684 142.69 29.3359 146.223 29.3359C149.698 29.3359 151.883 31.7019 151.883 35.4764V36.3519H143.013V36.5063C142.972 36.9645 143.029 37.426 143.182 37.8603C143.335 38.2946 143.579 38.6916 143.899 39.0251C144.219 39.3586 144.606 39.6209 145.036 39.7946C145.465 39.9683 145.927 40.0493 146.391 40.0324C147 40.089 147.612 39.9492 148.134 39.6337C148.657 39.3182 149.063 38.8439 149.292 38.2815L151.74 38.2815ZM143.025 34.566H149.304C149.327 34.1541 149.264 33.7418 149.119 33.3552C148.973 32.9685 148.749 32.6158 148.46 32.3191C148.171 32.0224 147.823 31.7882 147.438 31.6312C147.053 31.4741 146.639 31.3976 146.223 31.4065C145.803 31.404 145.387 31.484 144.999 31.6417C144.61 31.7995 144.257 32.032 143.96 32.3257C143.662 32.6194 143.427 32.9687 143.266 33.3532C143.106 33.7377 143.024 34.1499 143.025 34.566V34.566Z" fill="black"/>
<path d="M52.4722 12.0093C53.0127 11.9709 53.5551 12.0518 54.0602 12.2463C54.5653 12.4407 55.0205 12.7439 55.3931 13.1339C55.7657 13.5239 56.0463 13.9909 56.2147 14.5014C56.3832 15.0119 56.4352 15.5531 56.367 16.086C56.367 18.707 54.9378 20.2137 52.4722 20.2137H49.4824V12.0093H52.4722ZM50.768 19.0534H52.3286C52.7149 19.0763 53.1013 19.0135 53.46 18.8697C53.8186 18.7258 54.1404 18.5045 54.4019 18.2219C54.6634 17.9392 54.858 17.6023 54.9715 17.2357C55.0851 16.8691 55.1148 16.4821 55.0584 16.1027C55.1107 15.7248 55.078 15.3401 54.9627 14.9762C54.8474 14.6123 54.6523 14.2781 54.3914 13.9977C54.1305 13.7173 53.8103 13.4976 53.4537 13.3543C53.0971 13.2109 52.7129 13.1476 52.3286 13.1687H50.768V19.0534Z" fill="black"/>
<path d="M57.8206 17.1109C57.7813 16.7041 57.8283 16.2935 57.9584 15.9057C58.0886 15.5178 58.2991 15.1612 58.5765 14.8588C58.8539 14.5563 59.1919 14.3146 59.5691 14.1492C59.9462 13.9839 60.354 13.8984 60.7664 13.8984C61.1788 13.8984 61.5866 13.9839 61.9637 14.1492C62.3408 14.3146 62.6789 14.5563 62.9563 14.8588C63.2336 15.1612 63.4441 15.5178 63.5743 15.9057C63.7045 16.2935 63.7515 16.7041 63.7122 17.1109C63.7522 17.5183 63.7058 17.9293 63.576 18.3178C63.4461 18.7063 63.2357 19.0635 62.9583 19.3666C62.6809 19.6697 62.3425 19.9119 61.965 20.0776C61.5875 20.2433 61.1792 20.3289 60.7664 20.3289C60.3535 20.3289 59.9452 20.2433 59.5677 20.0776C59.1902 19.9119 58.8519 19.6697 58.5745 19.3666C58.297 19.0635 58.0866 18.7063 57.9568 18.3178C57.827 17.9293 57.7806 17.5183 57.8206 17.1109ZM62.4442 17.1109C62.4442 15.7689 61.8359 14.984 60.7684 14.984C59.6968 14.984 59.094 15.7689 59.094 17.111C59.094 18.4638 59.6969 19.2426 60.7684 19.2426C61.8359 19.2426 62.4442 18.4584 62.4442 17.1109H62.4442Z" fill="black"/>
<path d="M71.5431 20.2071H70.2642L68.9732 15.6471H68.8757L67.59 20.2071H66.3234L64.6016 14.0156H65.852L66.9709 18.7401H67.0631L68.3473 14.0156H69.53L70.8142 18.7401H70.9118L72.0253 14.0156H73.2581L71.5431 20.2071Z" fill="black"/>
<path d="M74.7051 14.0162H75.8918V14.9998H75.9839C76.1402 14.6465 76.4038 14.3504 76.7379 14.1527C77.0721 13.9549 77.4601 13.8655 77.848 13.8967C78.1519 13.8741 78.4571 13.9195 78.7409 14.0296C79.0248 14.1398 79.2799 14.3118 79.4876 14.5329C79.6952 14.7541 79.85 15.0187 79.9405 15.3072C80.0309 15.5957 80.0547 15.9007 80.0101 16.1996V20.2077H78.7773V16.5064C78.7773 15.5114 78.3411 15.0166 77.4294 15.0166C77.223 15.0071 77.017 15.0419 76.8255 15.1187C76.634 15.1954 76.4615 15.3123 76.3198 15.4614C76.1782 15.6104 76.0707 15.788 76.0047 15.9821C75.9388 16.1761 75.916 16.382 75.9379 16.5856V20.2077H74.7051L74.7051 14.0162Z" fill="black"/>
<path d="M81.9746 11.6016H83.2074V20.2101H81.9746V11.6016Z" fill="black"/>
<path d="M84.9221 17.1111C84.8829 16.7041 84.9299 16.2936 85.0601 15.9057C85.1903 15.5179 85.4008 15.1613 85.6782 14.8588C85.9556 14.5563 86.2937 14.3146 86.6709 14.1492C87.048 13.9839 87.4558 13.8984 87.8683 13.8984C88.2807 13.8984 88.6885 13.9839 89.0656 14.1492C89.4428 14.3146 89.7809 14.5563 90.0583 14.8588C90.3357 15.1613 90.5462 15.5179 90.6764 15.9057C90.8066 16.2936 90.8536 16.7041 90.8144 17.1111C90.8544 17.5184 90.8079 17.9295 90.678 18.318C90.5482 18.7064 90.3377 19.0637 90.0603 19.3667C89.7828 19.6698 89.4445 19.912 89.0669 20.0777C88.6894 20.2434 88.2811 20.329 87.8683 20.329C87.4554 20.329 87.0471 20.2434 86.6695 20.0777C86.292 19.912 85.9537 19.6698 85.6762 19.3667C85.3988 19.0637 85.1883 18.7064 85.0585 18.318C84.9286 17.9295 84.8821 17.5184 84.9221 17.1111ZM89.5457 17.1111C89.5457 15.769 88.9374 14.9841 87.8699 14.9841C86.7984 14.9841 86.1956 15.769 86.1956 17.1111C86.1956 18.4639 86.7984 19.2427 87.8699 19.2427C88.9374 19.2427 89.5457 18.4585 89.5457 17.1111H89.5457Z" fill="black"/>
<path d="M92.1113 18.4585C92.1113 17.344 92.9485 16.7015 94.4346 16.6101L96.1267 16.5135V15.9791C96.1267 15.3251 95.6905 14.9559 94.8478 14.9559C94.1596 14.9559 93.6828 15.2063 93.546 15.644H92.3525C92.4785 14.5806 93.4877 13.8984 94.9047 13.8984C96.4708 13.8984 97.354 14.6712 97.354 15.9791V20.2094H96.1673V19.3393H96.0698C95.8718 19.6514 95.5938 19.9059 95.2642 20.0767C94.9345 20.2475 94.5651 20.3285 94.1935 20.3115C93.9313 20.3385 93.6662 20.3108 93.4155 20.2301C93.1647 20.1493 92.9338 20.0174 92.7376 19.8429C92.5415 19.6683 92.3844 19.4549 92.2765 19.2164C92.1686 18.978 92.1124 18.7198 92.1113 18.4585ZM96.1267 17.9294V17.4118L94.6013 17.5085C93.741 17.5655 93.3509 17.8556 93.3509 18.4014C93.3509 18.9586 93.8386 19.2829 94.5092 19.2829C94.7057 19.3026 94.9042 19.283 95.0928 19.2251C95.2815 19.1672 95.4565 19.0723 95.6074 18.946C95.7583 18.8198 95.8821 18.6647 95.9713 18.49C96.0605 18.3154 96.1133 18.1247 96.1267 17.9294Z" fill="black"/>
<path d="M98.9746 17.1116C98.9746 15.1552 99.9893 13.9158 101.568 13.9158C101.958 13.898 102.345 13.9907 102.685 14.183C103.024 14.3754 103.301 14.6595 103.483 15.0021H103.575V11.6016H104.808V20.2101H103.627V19.2318H103.529C103.333 19.5721 103.046 19.8527 102.7 20.0431C102.355 20.2335 101.963 20.3265 101.568 20.3121C99.9785 20.3122 98.9746 19.0728 98.9746 17.1116ZM100.248 17.1116C100.248 18.4249 100.873 19.2151 101.917 19.2151C102.956 19.2151 103.598 18.4135 103.598 17.117C103.598 15.8266 102.949 15.0136 101.917 15.0136C100.879 15.0136 100.248 15.8091 100.248 17.1116H100.248Z" fill="black"/>
<path d="M109.908 17.1109C109.869 16.7041 109.916 16.2935 110.046 15.9057C110.177 15.5178 110.387 15.1612 110.664 14.8588C110.942 14.5563 111.28 14.3146 111.657 14.1492C112.034 13.9839 112.442 13.8984 112.854 13.8984C113.267 13.8984 113.674 13.9839 114.052 14.1492C114.429 14.3146 114.767 14.5563 115.044 14.8588C115.322 15.1612 115.532 15.5178 115.662 15.9057C115.792 16.2935 115.839 16.7041 115.8 17.1109C115.84 17.5183 115.794 17.9293 115.664 18.3178C115.534 18.7063 115.324 19.0635 115.046 19.3666C114.769 19.6697 114.43 19.9119 114.053 20.0776C113.675 20.2433 113.267 20.3289 112.854 20.3289C112.441 20.3289 112.033 20.2433 111.656 20.0776C111.278 19.9119 110.94 19.6697 110.662 19.3666C110.385 19.0635 110.175 18.7063 110.045 18.3178C109.915 17.9293 109.868 17.5183 109.908 17.1109ZM114.532 17.1109C114.532 15.7689 113.924 14.984 112.856 14.984C111.785 14.984 111.182 15.7689 111.182 17.111C111.182 18.4638 111.785 19.2426 112.856 19.2426C113.924 19.2426 114.532 18.4584 114.532 17.1109Z" fill="black"/>
<path d="M117.453 14.0162H118.64V14.9998H118.732C118.888 14.6465 119.152 14.3504 119.486 14.1527C119.82 13.9549 120.208 13.8655 120.596 13.8967C120.9 13.8741 121.205 13.9195 121.489 14.0296C121.773 14.1398 122.028 14.3118 122.236 14.5329C122.443 14.7541 122.598 15.0187 122.689 15.3072C122.779 15.5957 122.803 15.9007 122.758 16.1996V20.2077H121.525V16.5064C121.525 15.5114 121.089 15.0166 120.177 15.0166C119.971 15.0071 119.765 15.0419 119.574 15.1187C119.382 15.1954 119.21 15.3123 119.068 15.4614C118.926 15.6104 118.819 15.788 118.753 15.9821C118.687 16.1761 118.664 16.382 118.686 16.5856V20.2077H117.453V14.0162Z" fill="black"/>
<path d="M129.726 12.4766V14.0463H131.079V15.0755H129.726V18.2592C129.726 18.9078 129.995 19.1918 130.609 19.1918C130.766 19.1913 130.923 19.1818 131.079 19.1635V20.1814C130.858 20.2206 130.633 20.2415 130.409 20.2438C129.038 20.2438 128.492 19.7658 128.492 18.5721V15.0754H127.5V14.0462H128.492V12.4766H129.726Z" fill="black"/>
<path d="M132.762 11.6016H133.984V15.0135H134.081C134.245 14.657 134.516 14.3592 134.857 14.1607C135.198 13.9622 135.592 13.8727 135.986 13.9044C136.288 13.8881 136.59 13.9381 136.871 14.051C137.152 14.1638 137.404 14.3366 137.609 14.557C137.815 14.7775 137.969 15.0402 138.06 15.3264C138.151 15.6126 138.177 15.9152 138.137 16.2126V20.2101H136.903V16.5141C136.903 15.5251 136.438 15.0243 135.567 15.0243C135.355 15.007 135.142 15.0359 134.943 15.1089C134.743 15.1818 134.563 15.2971 134.413 15.4466C134.263 15.5961 134.148 15.7763 134.076 15.9744C134.003 16.1726 133.976 16.3841 133.995 16.594V20.21H132.762L132.762 11.6016Z" fill="black"/>
<path d="M145.326 18.5378C145.158 19.1037 144.796 19.5931 144.301 19.9206C143.806 20.2481 143.211 20.3926 142.619 20.3291C142.208 20.3398 141.799 20.2617 141.421 20.1001C141.043 19.9385 140.705 19.6973 140.43 19.3932C140.156 19.0892 139.951 18.7295 139.831 18.3393C139.711 17.949 139.677 17.5375 139.734 17.1333C139.679 16.7278 139.713 16.3154 139.833 15.924C139.953 15.5326 140.156 15.1713 140.429 14.8645C140.702 14.5578 141.039 14.3128 141.415 14.1462C141.792 13.9795 142.201 13.8951 142.614 13.8985C144.352 13.8985 145.4 15.0755 145.4 17.0198V17.4462H140.989V17.5146C140.97 17.7418 140.999 17.9705 141.074 18.1861C141.149 18.4016 141.269 18.5992 141.425 18.7662C141.582 18.9332 141.772 19.0659 141.984 19.1558C142.195 19.2458 142.423 19.2909 142.653 19.2884C142.948 19.3235 143.247 19.2708 143.511 19.1372C143.776 19.0035 143.994 18.7949 144.139 18.5378L145.326 18.5378ZM140.989 16.5425H144.145C144.16 16.3347 144.132 16.1259 144.061 15.9297C143.99 15.7335 143.879 15.554 143.734 15.403C143.589 15.2519 143.414 15.1326 143.22 15.0526C143.026 14.9726 142.817 14.9337 142.607 14.9385C142.394 14.9359 142.182 14.9755 141.985 15.0552C141.787 15.1349 141.608 15.2529 141.457 15.4024C141.306 15.5519 141.187 15.7298 141.107 15.9256C141.027 16.1214 140.987 16.3311 140.989 16.5425H140.989Z" fill="black"/>
</svg>
