<svg width="186" height="55" viewBox="0 0 186 55" fill="none" xmlns="http://www.w3.org/2000/svg">
<path d="M178.749 55H6.87496C3.09373 55 0 51.9063 0 48.125V6.87525C0 3.09402 3.09373 0.000282288 6.87496 0.000282288H178.749C182.53 0.000282288 185.624 3.09402 185.624 6.87525V48.125C185.624 51.9063 182.53 55 178.749 55Z" fill="black"/>
<path d="M178.749 0.000282288H6.87496C3.09373 0.000282288 0 3.09402 0 6.87525V48.125C0 51.9063 3.09373 55 6.87496 55H178.749C182.53 55 185.624 51.9063 185.624 48.125V6.87525C185.624 3.09402 182.53 0.000282288 178.749 0.000282288ZM178.749 1.10027C181.934 1.10027 184.524 3.69076 184.524 6.87525V48.125C184.524 51.3095 181.934 53.9 178.749 53.9H6.87496C3.69048 53.9 1.1 51.3095 1.1 48.125V6.87525C1.1 3.69076 3.69048 1.10027 6.87496 1.10027H178.749Z" fill="#A6A6A6"/>
<path d="M65.2001 14.0874C65.2001 15.2396 64.8591 16.1568 64.1757 16.8415C63.3988 17.6555 62.3882 18.0625 61.1452 18.0625C59.9531 18.0625 58.9411 17.65 58.1092 16.8236C57.2746 15.9986 56.8594 14.9743 56.8594 13.7533C56.8594 12.5309 57.2746 11.5079 58.1092 10.6815C58.9411 9.85654 59.9531 9.44267 61.1452 9.44267C61.7351 9.44267 62.3016 9.55817 62.8378 9.78917C63.3755 10.0202 63.8058 10.3268 64.129 10.7104L63.403 11.4364C62.8571 10.7847 62.105 10.4574 61.1452 10.4574C60.2762 10.4574 59.5255 10.7627 58.8916 11.3732C58.2577 11.985 57.9415 12.777 57.9415 13.7533C57.9415 14.7281 58.2577 15.5215 58.8916 16.132C59.5255 16.7439 60.2762 17.0478 61.1452 17.0478C62.0665 17.0478 62.8337 16.7411 63.4497 16.1265C63.8485 15.7264 64.0781 15.1709 64.14 14.4559H61.1452V13.4645H65.1423C65.1808 13.6804 65.2001 13.888 65.2001 14.0874Z" fill="white"/>
<path d="M65.2001 14.0874C65.2001 15.2396 64.8591 16.1568 64.1757 16.8415C63.3988 17.6555 62.3882 18.0625 61.1452 18.0625C59.9531 18.0625 58.9411 17.65 58.1092 16.8236C57.2746 15.9986 56.8594 14.9743 56.8594 13.7533C56.8594 12.5309 57.2746 11.5079 58.1092 10.6815C58.9411 9.85654 59.9531 9.44267 61.1452 9.44267C61.7351 9.44267 62.3016 9.55817 62.8378 9.78917C63.3755 10.0202 63.8058 10.3268 64.129 10.7104L63.403 11.4364C62.8571 10.7847 62.105 10.4574 61.1452 10.4574C60.2762 10.4574 59.5255 10.7627 58.8916 11.3732C58.2577 11.985 57.9415 12.777 57.9415 13.7533C57.9415 14.7281 58.2577 15.5215 58.8916 16.132C59.5255 16.7439 60.2762 17.0478 61.1452 17.0478C62.0665 17.0478 62.8337 16.7411 63.4497 16.1265C63.8485 15.7264 64.0781 15.1709 64.14 14.4559H61.1452V13.4645H65.1423C65.1808 13.6804 65.2001 13.888 65.2001 14.0874Z" stroke="white" stroke-width="0.266667" stroke-miterlimit="10"/>
<path d="M71.5373 10.6384H67.7808V13.2536H71.1688V14.245H67.7808V16.8603H71.5373V17.875H66.7207V9.62504H71.5373V10.6384Z" fill="white"/>
<path d="M71.5373 10.6384H67.7808V13.2536H71.1688V14.245H67.7808V16.8603H71.5373V17.875H66.7207V9.62504H71.5373V10.6384Z" stroke="white" stroke-width="0.266667" stroke-miterlimit="10"/>
<path d="M76.0072 17.875H74.9471V10.6384H72.6426V9.62504H78.3117V10.6384H76.0072V17.875Z" fill="white"/>
<path d="M76.0072 17.875H74.9471V10.6384H72.6426V9.62504H78.3117V10.6384H76.0072V17.875Z" stroke="white" stroke-width="0.266667" stroke-miterlimit="10"/>
<path d="M82.4141 9.62504H83.4742V17.875H82.4141V9.62504Z" fill="white" stroke="white" stroke-width="0.266667" stroke-miterlimit="10"/>
<path d="M88.1771 17.875H87.117V10.6384H84.8125V9.62504H90.4816V10.6384H88.1771V17.875Z" fill="white"/>
<path d="M88.1771 17.875H87.117V10.6384H84.8125V9.62504H90.4816V10.6384H88.1771V17.875Z" stroke="white" stroke-width="0.266667" stroke-miterlimit="10"/>
<path d="M95.9451 16.121C96.5556 16.7398 97.3022 17.0478 98.1864 17.0478C99.0705 17.0478 99.8171 16.7398 100.428 16.121C101.038 15.5023 101.345 14.713 101.345 13.7533C101.345 12.7935 101.038 12.0029 100.428 11.3855C99.8171 10.7668 99.0705 10.4574 98.1864 10.4574C97.3022 10.4574 96.5556 10.7668 95.9451 11.3855C95.336 12.0029 95.0294 12.7935 95.0294 13.7533C95.0294 14.713 95.336 15.5023 95.9451 16.121ZM101.211 16.8113C100.4 17.6459 99.3922 18.0625 98.1864 18.0625C96.9805 18.0625 95.9726 17.6459 95.1628 16.8113C94.3515 15.978 93.9473 14.9591 93.9473 13.7533C93.9473 12.5474 94.3515 11.5272 95.1628 10.6939C95.9726 9.86067 96.9805 9.44267 98.1864 9.44267C99.3854 9.44267 100.39 9.86204 101.206 10.6994C102.02 11.5368 102.427 12.5543 102.427 13.7533C102.427 14.9591 102.021 15.978 101.211 16.8113Z" fill="white"/>
<path d="M95.9451 16.121C96.5556 16.7398 97.3022 17.0478 98.1864 17.0478C99.0705 17.0478 99.8171 16.7398 100.428 16.121C101.038 15.5023 101.345 14.713 101.345 13.7533C101.345 12.7935 101.038 12.0029 100.428 11.3855C99.8171 10.7668 99.0705 10.4574 98.1864 10.4574C97.3022 10.4574 96.5556 10.7668 95.9451 11.3855C95.336 12.0029 95.0294 12.7935 95.0294 13.7533C95.0294 14.713 95.336 15.5023 95.9451 16.121ZM101.211 16.8113C100.4 17.6459 99.3922 18.0625 98.1864 18.0625C96.9805 18.0625 95.9726 17.6459 95.1628 16.8113C94.3515 15.978 93.9473 14.9591 93.9473 13.7533C93.9473 12.5474 94.3515 11.5272 95.1628 10.6939C95.9726 9.86067 96.9805 9.44267 98.1864 9.44267C99.3854 9.44267 100.39 9.86204 101.206 10.6994C102.02 11.5368 102.427 12.5543 102.427 13.7533C102.427 14.9591 102.021 15.978 101.211 16.8113Z" stroke="white" stroke-width="0.266667" stroke-miterlimit="10"/>
<path d="M103.916 17.875V9.62504H105.206L109.215 16.0421H109.262L109.215 14.4526V9.62504H110.277V17.875H109.17L104.975 11.1458H104.929L104.975 12.7367V17.875H103.916Z" fill="white"/>
<path d="M103.916 17.875V9.62504H105.206L109.215 16.0421H109.262L109.215 14.4526V9.62504H110.277V17.875H109.17L104.975 11.1458H104.929L104.975 12.7367V17.875H103.916Z" stroke="white" stroke-width="0.266667" stroke-miterlimit="10"/>
<path d="M147.035 41.2471H149.601V24.0583H147.035V41.2471ZM170.145 30.2499L167.204 37.7024H167.116L164.063 30.2499H161.3L165.877 40.6655L163.269 46.4597H165.943L172.998 30.2499H170.145ZM155.595 39.2946C154.753 39.2946 153.582 38.8752 153.582 37.8344C153.582 36.5089 155.041 36.0001 156.302 36.0001C157.429 36.0001 157.961 36.2435 158.646 36.5749C158.446 38.1671 157.076 39.2946 155.595 39.2946ZM155.904 29.8745C154.047 29.8745 152.122 30.6926 151.327 32.5063L153.604 33.4564C154.091 32.5063 154.997 32.1955 155.948 32.1955C157.275 32.1955 158.624 32.9916 158.646 34.4079V34.5839C158.181 34.3185 157.187 33.9211 155.97 33.9211C153.516 33.9211 151.016 35.27 151.016 37.7904C151.016 40.0907 153.029 41.573 155.284 41.573C157.01 41.573 157.961 40.7988 158.558 39.8913H158.646V41.2182H161.122V34.6279C161.122 31.5768 158.845 29.8745 155.904 29.8745ZM140.048 32.3426H136.398V26.4508H140.048C141.966 26.4508 143.055 28.0389 143.055 29.396C143.055 30.7284 141.966 32.3426 140.048 32.3426ZM139.982 24.0583H133.834V41.2471H136.398V34.7351H139.982C142.825 34.7351 145.621 32.6754 145.621 29.396C145.621 26.1167 142.825 24.0583 139.982 24.0583ZM106.458 39.2974C104.686 39.2974 103.202 37.8137 103.202 35.776C103.202 33.7163 104.686 32.2093 106.458 32.2093C108.208 32.2093 109.581 33.7163 109.581 35.776C109.581 37.8137 108.208 39.2974 106.458 39.2974ZM109.405 31.2124H109.315C108.739 30.5263 107.632 29.9062 106.237 29.9062C103.312 29.9062 100.632 32.4746 100.632 35.776C100.632 39.054 103.312 41.6018 106.237 41.6018C107.632 41.6018 108.739 40.9817 109.315 40.2722H109.405V41.1151C109.405 43.3522 108.208 44.5484 106.281 44.5484C104.708 44.5484 103.733 43.4182 103.334 42.4653L101.097 43.3962C101.739 44.9472 103.445 46.8516 106.281 46.8516C109.293 46.8516 111.841 45.0792 111.841 40.7603V30.2595H109.405V31.2124ZM113.613 41.2471H116.183V24.0569H113.613V41.2471ZM119.97 35.5766C119.904 33.3175 121.72 32.1653 123.027 32.1653C124.047 32.1653 124.91 32.674 125.198 33.4055L119.97 35.5766ZM127.945 33.6269C127.458 32.3206 125.973 29.9062 122.939 29.9062C119.926 29.9062 117.424 32.2753 117.424 35.754C117.424 39.032 119.904 41.6018 123.226 41.6018C125.907 41.6018 127.458 39.9628 128.1 39.01L126.107 37.6804C125.443 38.6552 124.534 39.2974 123.226 39.2974C121.92 39.2974 120.989 38.6992 120.391 37.5264L128.21 34.291L127.945 33.6269ZM65.6468 31.7005V34.181H71.5827C71.4053 35.5766 70.9406 36.5955 70.2324 37.3036C69.3676 38.1685 68.016 39.1214 65.6468 39.1214C61.9907 39.1214 59.1335 36.1747 59.1335 32.52C59.1335 28.8639 61.9907 25.9187 65.6468 25.9187C67.6186 25.9187 69.0582 26.6942 70.1211 27.691L71.8714 25.9407C70.3864 24.5231 68.4161 23.4368 65.6468 23.4368C60.6405 23.4368 56.4316 27.5137 56.4316 32.52C56.4316 37.5264 60.6405 41.6018 65.6468 41.6018C68.3487 41.6018 70.3864 40.715 71.9814 39.054C73.6218 37.415 74.1306 35.1119 74.1306 33.2501C74.1306 32.674 74.0866 32.1433 73.9972 31.7005H65.6468ZM80.8804 39.2974C79.108 39.2974 77.579 37.8357 77.579 35.754C77.579 33.6489 79.108 32.2093 80.8804 32.2093C82.6514 32.2093 84.1804 33.6489 84.1804 35.754C84.1804 37.8357 82.6514 39.2974 80.8804 39.2974ZM80.8804 29.9062C77.645 29.9062 75.0092 32.3646 75.0092 35.754C75.0092 39.1214 77.645 41.6018 80.8804 41.6018C84.1144 41.6018 86.7502 39.1214 86.7502 35.754C86.7502 32.3646 84.1144 29.9062 80.8804 29.9062ZM93.6857 39.2974C91.9133 39.2974 90.3843 37.8357 90.3843 35.754C90.3843 33.6489 91.9133 32.2093 93.6857 32.2093C95.4581 32.2093 96.9857 33.6489 96.9857 35.754C96.9857 37.8357 95.4581 39.2974 93.6857 39.2974ZM93.6857 29.9062C90.4517 29.9062 87.8159 32.3646 87.8159 35.754C87.8159 39.1214 90.4517 41.6018 93.6857 41.6018C96.9197 41.6018 99.5555 39.1214 99.5555 35.754C99.5555 32.3646 96.9197 29.9062 93.6857 29.9062Z" fill="white"/>
<path d="M28.4872 26.7117L13.8477 42.2491C13.849 42.2519 13.849 42.256 13.8504 42.2588C14.3 43.9459 15.84 45.1875 17.6688 45.1875C18.4003 45.1875 19.0864 44.9895 19.6749 44.643L19.7216 44.6155L36.1995 35.1074L28.4872 26.7117Z" fill="#EA4335"/>
<path d="M43.2951 24.0617L43.2814 24.0521L36.1672 19.9285L28.1523 27.0606L36.1961 35.1016L43.2718 31.0192C44.512 30.3482 45.3549 29.0406 45.3549 27.5336C45.3549 26.0349 44.5244 24.7341 43.2951 24.0617Z" fill="#FBBC04"/>
<path d="M13.8457 12.7605C13.7577 13.085 13.7109 13.426 13.7109 13.778V41.2339C13.7109 41.5859 13.7577 41.9269 13.8471 42.25L28.9885 27.11L13.8457 12.7605Z" fill="#4285F4"/>
<path d="M28.5939 27.5L36.1701 19.9252L19.7114 10.3827C19.1133 10.0238 18.4148 9.81759 17.6682 9.81759C15.8394 9.81759 14.2967 11.062 13.8471 12.7505C13.8471 12.7518 13.8457 12.7532 13.8457 12.7546L28.5939 27.5Z" fill="#34A853"/>
</svg>
