<svg width="16" height="16" viewBox="0 0 16 16" fill="none" xmlns="http://www.w3.org/2000/svg">
<path d="M3.5538 7.18359H12.4475C13.0363 7.18359 13.6009 7.41747 14.0172 7.83376C14.4334 8.25004 14.6673 8.81466 14.6673 9.40341V12.9566H1.33398V9.40341C1.33398 8.81466 1.56786 8.25004 1.98415 7.83376C2.40045 7.41747 2.96507 7.18359 3.5538 7.18359Z" stroke="#666666" stroke-width="1.5" stroke-linecap="round" stroke-linejoin="round"/>
<path d="M1.33398 12.9609V13.6961" stroke="#666666" stroke-width="1.5" stroke-linecap="round" stroke-linejoin="round"/>
<path d="M14.668 12.9609V13.6961" stroke="#666666" stroke-width="1.5" stroke-linecap="round" stroke-linejoin="round"/>
<path d="M13.9248 7.75135V4.21982C13.9248 3.63108 13.6909 3.06647 13.2747 2.65017C12.8584 2.23387 12.2938 2 11.705 2H4.29599C3.70726 2 3.14264 2.23387 2.72634 2.65017C2.31005 3.06647 2.07617 3.63108 2.07617 4.21982V7.75135" stroke="#666666" stroke-width="1.5" stroke-linecap="round" stroke-linejoin="round"/>
</svg>
