<svg width="14" height="15" viewBox="0 0 14 15" fill="none" xmlns="http://www.w3.org/2000/svg">
<path d="M5 14.0005V9.06714C5 8.69378 5 8.50709 5.07266 8.36448C5.13658 8.23904 5.23857 8.13706 5.36401 8.07314C5.50661 8.00048 5.6933 8.00048 6.06667 8.00048H7.93333C8.3067 8.00048 8.49339 8.00048 8.63599 8.07314C8.76144 8.13706 8.86342 8.23904 8.92734 8.36448C9 8.50709 9 8.69378 9 9.06714V14.0005M6.34513 1.84315L1.82359 5.3599C1.52135 5.59498 1.37022 5.71252 1.26135 5.85973C1.16491 5.99012 1.09307 6.13701 1.04935 6.29319C1 6.4695 1 6.66095 1 7.04386V11.8671C1 12.6139 1 12.9872 1.14532 13.2725C1.27316 13.5233 1.47713 13.7273 1.72801 13.8552C2.01323 14.0005 2.3866 14.0005 3.13333 14.0005H10.8667C11.6134 14.0005 11.9868 14.0005 12.272 13.8552C12.5229 13.7273 12.7268 13.5233 12.8547 13.2725C13 12.9872 13 12.6139 13 11.8671V7.04386C13 6.66095 13 6.4695 12.9506 6.29319C12.9069 6.13701 12.8351 5.99012 12.7386 5.85973C12.6298 5.71252 12.4787 5.59499 12.1764 5.35991L7.65487 1.84315C7.42065 1.66099 7.30354 1.5699 7.17423 1.53489C7.06013 1.504 6.93987 1.504 6.82577 1.53489C6.69646 1.5699 6.57935 1.66099 6.34513 1.84315Z" stroke="#666666" stroke-width="1.5" stroke-linecap="round" stroke-linejoin="round"/>
</svg>
