<svg width="16" height="16" viewBox="0 0 16 16" fill="none" xmlns="http://www.w3.org/2000/svg">
<path d="M13.1726 12.3442H2.82759C2.37052 12.3442 2 11.9736 2 11.5166V8.62002C2 7.70589 2.74105 6.96484 3.65517 6.96484H12.345C13.2591 6.96484 14.0002 7.70589 14.0002 8.62002V11.5166C14.0002 11.9736 13.6297 12.3442 13.1726 12.3442Z" stroke="#666666" stroke-width="1.5" stroke-linecap="round" stroke-linejoin="round"/>
<path d="M5.10298 9.65598C5.10298 9.88451 4.91772 10.0698 4.68918 10.0698C4.46065 10.0698 4.27539 9.88451 4.27539 9.65598C4.27539 9.42745 4.46065 9.24219 4.68918 9.24219C4.91772 9.24219 5.10298 9.42745 5.10298 9.65598Z" stroke="#666666" stroke-width="1.5" stroke-linecap="round" stroke-linejoin="round"/>
<path d="M11.7241 9.65598C11.7241 9.88451 11.5388 10.0698 11.3103 10.0698C11.0817 10.0698 10.8965 9.88451 10.8965 9.65598C10.8965 9.42745 11.0817 9.24219 11.3103 9.24219C11.5388 9.24219 11.7241 9.42745 11.7241 9.65598Z" stroke="#666666" stroke-width="1.5" stroke-linecap="round" stroke-linejoin="round"/>
<path d="M13.1731 6.96552H2.82812L3.4252 3.38306C3.55822 2.58496 4.24874 2 5.05785 2H10.9434C11.7525 2 12.4431 2.58496 12.5761 3.38306L13.1731 6.96552Z" stroke="#666666" stroke-width="1.5" stroke-linecap="round" stroke-linejoin="round"/>
<path d="M3.6543 12.7578V13.9992" stroke="#666666" stroke-width="1.5" stroke-linecap="round" stroke-linejoin="round"/>
<path d="M12.3457 12.7578V13.9992" stroke="#666666" stroke-width="1.5" stroke-linecap="round" stroke-linejoin="round"/>
</svg>
