<svg width="20" height="20" viewBox="0 0 20 20" fill="none" xmlns="http://www.w3.org/2000/svg">
<path d="M4.4296 16.2C4.93653 15.0056 6.12012 14.168 7.49935 14.168H12.4993C13.8786 14.168 15.0622 15.0056 15.5691 16.2M13.3327 7.91797C13.3327 9.75892 11.8403 11.2513 9.99935 11.2513C8.1584 11.2513 6.66602 9.75892 6.66602 7.91797C6.66602 6.07702 8.1584 4.58464 9.99935 4.58464C11.8403 4.58464 13.3327 6.07702 13.3327 7.91797ZM18.3327 10.0013C18.3327 14.6037 14.6017 18.3346 9.99935 18.3346C5.39698 18.3346 1.66602 14.6037 1.66602 10.0013C1.66602 5.39893 5.39698 1.66797 9.99935 1.66797C14.6017 1.66797 18.3327 5.39893 18.3327 10.0013Z" stroke="#2398EC" stroke-width="1.5" stroke-linecap="round" stroke-linejoin="round"/>
</svg>
