<svg width="32" height="32" viewBox="0 0 32 32" fill="none" xmlns="http://www.w3.org/2000/svg">
<path d="M9.99935 14.6667H6.13268C5.38595 14.6667 5.01258 14.6667 4.72736 14.812C4.47648 14.9398 4.2725 15.1438 4.14467 15.3947C3.99935 15.6799 3.99935 16.0533 3.99935 16.8V28M21.9993 14.6667H25.866C26.6128 14.6667 26.9861 14.6667 27.2713 14.812C27.5222 14.9398 27.7262 15.1438 27.854 15.3947C27.9993 15.6799 27.9993 16.0533 27.9993 16.8V28M21.9993 28V8.26667C21.9993 6.77319 21.9993 6.02646 21.7087 5.45603C21.453 4.95426 21.0451 4.54631 20.5433 4.29065C19.9729 4 19.2262 4 17.7327 4H14.266C12.7725 4 12.0258 4 11.4554 4.29065C10.9536 4.54631 10.5457 4.95426 10.29 5.45603C9.99935 6.02646 9.99935 6.77319 9.99935 8.26667V28M29.3327 28H2.66602M14.666 9.33333H17.3327M14.666 14.6667H17.3327M14.666 20H17.3327" stroke="#6F23EC" stroke-width="1.5" stroke-linecap="round" stroke-linejoin="round"/>
</svg>
