<svg width="16" height="17" viewBox="0 0 16 17" fill="none" xmlns="http://www.w3.org/2000/svg">
<g clip-path="url(#clip0_2462_87002)">
<path d="M3.00065 15.4779V12.1445M3.00065 5.47786V2.14453M1.33398 3.8112H4.66732M1.33398 13.8112H4.66732M8.66732 2.8112L7.5112 5.81711C7.32319 6.30593 7.22919 6.55034 7.083 6.75592C6.95344 6.93813 6.79425 7.09732 6.61204 7.22688C6.40646 7.37307 6.16205 7.46707 5.67322 7.65508L2.66732 8.8112L5.67323 9.96732C6.16205 10.1553 6.40646 10.2493 6.61204 10.3955C6.79425 10.5251 6.95344 10.6843 7.083 10.8665C7.22919 11.0721 7.32319 11.3165 7.5112 11.8053L8.66732 14.8112L9.82344 11.8053C10.0114 11.3165 10.1054 11.0721 10.2516 10.8665C10.3812 10.6843 10.5404 10.5251 10.7226 10.3955C10.9282 10.2493 11.1726 10.1553 11.6614 9.96732L14.6673 8.8112L11.6614 7.65508C11.1726 7.46707 10.9282 7.37307 10.7226 7.22688C10.5404 7.09732 10.3812 6.93813 10.2516 6.75592C10.1054 6.55034 10.0114 6.30593 9.82344 5.81711L8.66732 2.8112Z" stroke="#0073CF" stroke-width="1.5" stroke-linecap="round" stroke-linejoin="round"/>
</g>
<defs>
<clipPath id="clip0_2462_87002">
<rect width="16" height="16" fill="white" transform="translate(0 0.8125)"/>
</clipPath>
</defs>
</svg>
